<svg width="256" height="256" viewBox="0 0 256 256" fill="none" xmlns="http://www.w3.org/2000/svg">
<path d="M128 256C198.7 256 256 198.7 256 128C256 57.3 198.7 0 128 0C57.3 0 0 57.3 0 128C0 198.7 57.3 256 128 256Z" fill="#4F56F1"/>
<path d="M128 204C170.9 204 204 170.9 204 128C204 85.1 170.9 52 128 52C85.1 52 52 85.1 52 128C52 170.9 85.1 204 128 204Z" fill="white"/>
<path d="M128 192C163.3 192 192 163.3 192 128C192 92.7 163.3 64 128 64C92.7 64 64 92.7 64 128C64 163.3 92.7 192 128 192Z" fill="#4F56F1"/>
<path d="M128 186C159.9 186 186 159.9 186 128C186 96.1 159.9 70 128 70C96.1 70 70 96.1 70 128C70 159.9 96.1 186 128 186Z" fill="white"/>
<path d="M128 172C152.3 172 172 152.3 172 128C172 103.7 152.3 84 128 84C103.7 84 84 103.7 84 128C84 152.3 103.7 172 128 172Z" fill="#4F56F1"/>
<path d="M128 166C148.9 166 166 148.9 166 128C166 107.1 148.9 90 128 90C107.1 90 90 107.1 90 128C90 148.9 107.1 166 128 166Z" fill="white"/>
<path d="M128 152C141.2 152 152 141.2 152 128C152 114.8 141.2 104 128 104C114.8 104 104 114.8 104 128C104 141.2 114.8 152 128 152Z" fill="#4F56F1"/>
</svg>
